<?xml version="1.0" encoding="UTF-8" standalone="no"?>
<!DOCTYPE svg PUBLIC "-//W3C//DTD SVG 1.1//EN"
 "http://www.w3.org/Graphics/SVG/1.1/DTD/svg11.dtd">
<!-- Generated by graphviz version 2.24.0 (20090616.2323)
 -->
<!-- Title: Apache ServiceMix Pages: 1 -->
<svg width="1998pt" height="194pt"
 viewBox="0.00 0.00 1998.00 194.00" xmlns="http://www.w3.org/2000/svg" xmlns:xlink="http://www.w3.org/1999/xlink">
<g id="graph1" class="graph" transform="scale(1 1) rotate(0) translate(4 190)">
<title>Apache ServiceMix</title>
<polygon fill="white" stroke="white" points="-4,5 -4,-190 1995,-190 1995,5 -4,5"/>
<!-- jbi -->
<g id="node1" class="node"><title>jbi</title>
<polygon fill="#ffff99" stroke="#ffff99" points="1062,-186 954,-186 942,-174 942,-162 954,-150 1062,-150 1074,-162 1074,-174 1062,-186"/>
<path fill="#ffff99" stroke="#ffff99" d="M954,-186C948,-186 942,-180 942,-174"/>
<path fill="#ffff99" stroke="#ffff99" d="M942,-162C942,-156 948,-150 954,-150"/>
<path fill="#ffff99" stroke="#ffff99" d="M1062,-150C1068,-150 1074,-156 1074,-162"/>
<path fill="#ffff99" stroke="#ffff99" d="M1074,-174C1074,-180 1068,-186 1062,-186"/>
<polyline fill="none" stroke="black" points="1062,-186 954,-186 "/>
<path fill="none" stroke="black" d="M954,-186C948,-186 942,-180 942,-174"/>
<polyline fill="none" stroke="black" points="942,-174 942,-162 "/>
<path fill="none" stroke="black" d="M942,-162C942,-156 948,-150 954,-150"/>
<polyline fill="none" stroke="black" points="954,-150 1062,-150 "/>
<path fill="none" stroke="black" d="M1062,-150C1068,-150 1074,-156 1074,-162"/>
<polyline fill="none" stroke="black" points="1074,-162 1074,-174 "/>
<path fill="none" stroke="black" d="M1074,-174C1074,-180 1068,-186 1062,-186"/>
<text text-anchor="middle" x="1008" y="-166.3" font-family="Helvetica,sans-Serif" font-style="oblique" font-size="8.00">Apache ServiceMix: ServiceMix</text>
</g>
<!-- _SubscriptionManager_ -->
<g id="node2" class="node"><title>_SubscriptionManager_</title>
<polygon fill="gray" stroke="gray" points="92,-114 12,-114 1.42109e-014,-102 7.10543e-015,-90 12,-78 92,-78 104,-90 104,-102 92,-114"/>
<path fill="gray" stroke="gray" d="M12,-114C6,-114 1.77636e-014,-108 1.42109e-014,-102"/>
<path fill="gray" stroke="gray" d="M7.10543e-015,-90C3.55271e-015,-84 6,-78 12,-78"/>
<path fill="gray" stroke="gray" d="M92,-78C98,-78 104,-84 104,-90"/>
<path fill="gray" stroke="gray" d="M104,-102C104,-108 98,-114 92,-114"/>
<polyline fill="none" stroke="black" points="92,-114 12,-114 "/>
<path fill="none" stroke="black" d="M12,-114C6,-114 1.77636e-014,-108 1.42109e-014,-102"/>
<polyline fill="none" stroke="black" points="1.42109e-014,-102 7.10543e-015,-90 "/>
<path fill="none" stroke="black" d="M7.10543e-015,-90C3.55271e-015,-84 6,-78 12,-78"/>
<polyline fill="none" stroke="black" points="12,-78 92,-78 "/>
<path fill="none" stroke="black" d="M92,-78C98,-78 104,-84 104,-90"/>
<polyline fill="none" stroke="black" points="104,-90 104,-102 "/>
<path fill="none" stroke="black" d="M104,-102C104,-108 98,-114 92,-114"/>
<text text-anchor="middle" x="52" y="-94.3" font-family="Helvetica,sans-Serif" font-style="oblique" font-size="8.00">#SubscriptionManager#</text>
</g>
<!-- jbi&#45;&gt;_SubscriptionManager_ -->
<g id="edge2" class="edge"><title>jbi&#45;&gt;_SubscriptionManager_</title>
<path fill="none" stroke="black" d="M941.9,-165.955C766.452,-160.224 290.937,-142.634 114.02,-113.892"/>
<polygon fill="black" stroke="black" points="114.502,-110.424 104.058,-112.205 113.334,-117.326 114.502,-110.424"/>
</g>
<!-- servicemix_http -->
<g id="node3" class="node"><title>servicemix_http</title>
<polygon fill="gray" stroke="gray" points="182,-114 134,-114 122,-102 122,-90 134,-78 182,-78 194,-90 194,-102 182,-114"/>
<path fill="gray" stroke="gray" d="M134,-114C128,-114 122,-108 122,-102"/>
<path fill="gray" stroke="gray" d="M122,-90C122,-84 128,-78 134,-78"/>
<path fill="gray" stroke="gray" d="M182,-78C188,-78 194,-84 194,-90"/>
<path fill="gray" stroke="gray" d="M194,-102C194,-108 188,-114 182,-114"/>
<polyline fill="none" stroke="black" points="182,-114 134,-114 "/>
<path fill="none" stroke="black" d="M134,-114C128,-114 122,-108 122,-102"/>
<polyline fill="none" stroke="black" points="122,-102 122,-90 "/>
<path fill="none" stroke="black" d="M122,-90C122,-84 128,-78 134,-78"/>
<polyline fill="none" stroke="black" points="134,-78 182,-78 "/>
<path fill="none" stroke="black" d="M182,-78C188,-78 194,-84 194,-90"/>
<polyline fill="none" stroke="black" points="194,-90 194,-102 "/>
<path fill="none" stroke="black" d="M194,-102C194,-108 188,-114 182,-114"/>
<text text-anchor="middle" x="158" y="-94.3" font-family="Helvetica,sans-Serif" font-style="oblique" font-size="8.00">servicemix&#45;http</text>
</g>
<!-- jbi&#45;&gt;servicemix_http -->
<g id="edge4" class="edge"><title>jbi&#45;&gt;servicemix_http</title>
<path fill="none" stroke="black" d="M941.856,-166.226C779.086,-161.444 361.538,-146.535 204.03,-113.73"/>
<polygon fill="black" stroke="black" points="204.554,-110.262 194.037,-111.543 203.057,-117.1 204.554,-110.262"/>
</g>
<!-- servicemix_jms -->
<g id="node4" class="node"><title>servicemix_jms</title>
<polygon fill="gray" stroke="gray" points="272,-114 224,-114 212,-102 212,-90 224,-78 272,-78 284,-90 284,-102 272,-114"/>
<path fill="gray" stroke="gray" d="M224,-114C218,-114 212,-108 212,-102"/>
<path fill="gray" stroke="gray" d="M212,-90C212,-84 218,-78 224,-78"/>
<path fill="gray" stroke="gray" d="M272,-78C278,-78 284,-84 284,-90"/>
<path fill="gray" stroke="gray" d="M284,-102C284,-108 278,-114 272,-114"/>
<polyline fill="none" stroke="black" points="272,-114 224,-114 "/>
<path fill="none" stroke="black" d="M224,-114C218,-114 212,-108 212,-102"/>
<polyline fill="none" stroke="black" points="212,-102 212,-90 "/>
<path fill="none" stroke="black" d="M212,-90C212,-84 218,-78 224,-78"/>
<polyline fill="none" stroke="black" points="224,-78 272,-78 "/>
<path fill="none" stroke="black" d="M272,-78C278,-78 284,-84 284,-90"/>
<polyline fill="none" stroke="black" points="284,-90 284,-102 "/>
<path fill="none" stroke="black" d="M284,-102C284,-108 278,-114 272,-114"/>
<text text-anchor="middle" x="248" y="-94.3" font-family="Helvetica,sans-Serif" font-style="oblique" font-size="8.00">servicemix&#45;jms</text>
</g>
<!-- jbi&#45;&gt;servicemix_jms -->
<g id="edge6" class="edge"><title>jbi&#45;&gt;servicemix_jms</title>
<path fill="none" stroke="black" d="M941.762,-165.576C792.649,-159.712 433.437,-143.209 294.085,-113.752"/>
<polygon fill="black" stroke="black" points="294.565,-110.273 284.043,-111.516 293.043,-117.105 294.565,-110.273"/>
</g>
<!-- servicemix_jsr181 -->
<g id="node5" class="node"><title>servicemix_jsr181</title>
<polygon fill="gray" stroke="gray" points="372,-114 314,-114 302,-102 302,-90 314,-78 372,-78 384,-90 384,-102 372,-114"/>
<path fill="gray" stroke="gray" d="M314,-114C308,-114 302,-108 302,-102"/>
<path fill="gray" stroke="gray" d="M302,-90C302,-84 308,-78 314,-78"/>
<path fill="gray" stroke="gray" d="M372,-78C378,-78 384,-84 384,-90"/>
<path fill="gray" stroke="gray" d="M384,-102C384,-108 378,-114 372,-114"/>
<polyline fill="none" stroke="black" points="372,-114 314,-114 "/>
<path fill="none" stroke="black" d="M314,-114C308,-114 302,-108 302,-102"/>
<polyline fill="none" stroke="black" points="302,-102 302,-90 "/>
<path fill="none" stroke="black" d="M302,-90C302,-84 308,-78 314,-78"/>
<polyline fill="none" stroke="black" points="314,-78 372,-78 "/>
<path fill="none" stroke="black" d="M372,-78C378,-78 384,-84 384,-90"/>
<polyline fill="none" stroke="black" points="384,-90 384,-102 "/>
<path fill="none" stroke="black" d="M384,-102C384,-108 378,-114 372,-114"/>
<text text-anchor="middle" x="343" y="-94.3" font-family="Helvetica,sans-Serif" font-style="oblique" font-size="8.00">servicemix&#45;jsr181</text>
</g>
<!-- jbi&#45;&gt;servicemix_jsr181 -->
<g id="edge8" class="edge"><title>jbi&#45;&gt;servicemix_jsr181</title>
<path fill="none" stroke="black" d="M941.748,-164.347C808.977,-156.683 513.533,-137.81 394.205,-113.875"/>
<polygon fill="black" stroke="black" points="394.736,-110.41 384.229,-111.769 393.291,-117.259 394.736,-110.41"/>
</g>
<!-- servicemix_lwcontainer -->
<g id="node6" class="node"><title>servicemix_lwcontainer</title>
<polygon fill="gray" stroke="gray" points="492,-114 414,-114 402,-102 402,-90 414,-78 492,-78 504,-90 504,-102 492,-114"/>
<path fill="gray" stroke="gray" d="M414,-114C408,-114 402,-108 402,-102"/>
<path fill="gray" stroke="gray" d="M402,-90C402,-84 408,-78 414,-78"/>
<path fill="gray" stroke="gray" d="M492,-78C498,-78 504,-84 504,-90"/>
<path fill="gray" stroke="gray" d="M504,-102C504,-108 498,-114 492,-114"/>
<polyline fill="none" stroke="black" points="492,-114 414,-114 "/>
<path fill="none" stroke="black" d="M414,-114C408,-114 402,-108 402,-102"/>
<polyline fill="none" stroke="black" points="402,-102 402,-90 "/>
<path fill="none" stroke="black" d="M402,-90C402,-84 408,-78 414,-78"/>
<polyline fill="none" stroke="black" points="414,-78 492,-78 "/>
<path fill="none" stroke="black" d="M492,-78C498,-78 504,-84 504,-90"/>
<polyline fill="none" stroke="black" points="504,-90 504,-102 "/>
<path fill="none" stroke="black" d="M504,-102C504,-108 498,-114 492,-114"/>
<text text-anchor="middle" x="453" y="-94.3" font-family="Helvetica,sans-Serif" font-style="oblique" font-size="8.00">servicemix&#45;lwcontainer</text>
</g>
<!-- jbi&#45;&gt;servicemix_lwcontainer -->
<g id="edge10" class="edge"><title>jbi&#45;&gt;servicemix_lwcontainer</title>
<path fill="none" stroke="black" d="M941.753,-164.629C848.197,-159.017 672.066,-145.328 514.126,-114.03"/>
<polygon fill="black" stroke="black" points="514.724,-110.58 504.23,-112.041 513.344,-117.443 514.724,-110.58"/>
</g>
<!-- servicemix_bean -->
<g id="node7" class="node"><title>servicemix_bean</title>
<polygon fill="gray" stroke="gray" points="588,-114 534,-114 522,-102 522,-90 534,-78 588,-78 600,-90 600,-102 588,-114"/>
<path fill="gray" stroke="gray" d="M534,-114C528,-114 522,-108 522,-102"/>
<path fill="gray" stroke="gray" d="M522,-90C522,-84 528,-78 534,-78"/>
<path fill="gray" stroke="gray" d="M588,-78C594,-78 600,-84 600,-90"/>
<path fill="gray" stroke="gray" d="M600,-102C600,-108 594,-114 588,-114"/>
<polyline fill="none" stroke="black" points="588,-114 534,-114 "/>
<path fill="none" stroke="black" d="M534,-114C528,-114 522,-108 522,-102"/>
<polyline fill="none" stroke="black" points="522,-102 522,-90 "/>
<path fill="none" stroke="black" d="M522,-90C522,-84 528,-78 534,-78"/>
<polyline fill="none" stroke="black" points="534,-78 588,-78 "/>
<path fill="none" stroke="black" d="M588,-78C594,-78 600,-84 600,-90"/>
<polyline fill="none" stroke="black" points="600,-90 600,-102 "/>
<path fill="none" stroke="black" d="M600,-102C600,-108 594,-114 588,-114"/>
<text text-anchor="middle" x="561" y="-94.3" font-family="Helvetica,sans-Serif" font-style="oblique" font-size="8.00">servicemix&#45;bean</text>
</g>
<!-- jbi&#45;&gt;servicemix_bean -->
<g id="edge12" class="edge"><title>jbi&#45;&gt;servicemix_bean</title>
<path fill="none" stroke="black" d="M941.83,-163.607C864.075,-157.432 731.3,-143.719 609.901,-113.921"/>
<polygon fill="black" stroke="black" points="610.615,-110.492 600.065,-111.465 608.919,-117.284 610.615,-110.492"/>
</g>
<!-- servicemix_camel -->
<g id="node8" class="node"><title>servicemix_camel</title>
<polygon fill="gray" stroke="gray" points="688,-114 630,-114 618,-102 618,-90 630,-78 688,-78 700,-90 700,-102 688,-114"/>
<path fill="gray" stroke="gray" d="M630,-114C624,-114 618,-108 618,-102"/>
<path fill="gray" stroke="gray" d="M618,-90C618,-84 624,-78 630,-78"/>
<path fill="gray" stroke="gray" d="M688,-78C694,-78 700,-84 700,-90"/>
<path fill="gray" stroke="gray" d="M700,-102C700,-108 694,-114 688,-114"/>
<polyline fill="none" stroke="black" points="688,-114 630,-114 "/>
<path fill="none" stroke="black" d="M630,-114C624,-114 618,-108 618,-102"/>
<polyline fill="none" stroke="black" points="618,-102 618,-90 "/>
<path fill="none" stroke="black" d="M618,-90C618,-84 624,-78 630,-78"/>
<polyline fill="none" stroke="black" points="630,-78 688,-78 "/>
<path fill="none" stroke="black" d="M688,-78C694,-78 700,-84 700,-90"/>
<polyline fill="none" stroke="black" points="700,-90 700,-102 "/>
<path fill="none" stroke="black" d="M700,-102C700,-108 694,-114 688,-114"/>
<text text-anchor="middle" x="659" y="-94.3" font-family="Helvetica,sans-Serif" font-style="oblique" font-size="8.00">servicemix&#45;camel</text>
</g>
<!-- jbi&#45;&gt;servicemix_camel -->
<g id="edge14" class="edge"><title>jbi&#45;&gt;servicemix_camel</title>
<path fill="none" stroke="black" d="M941.977,-159.31C883.188,-150.84 794.824,-136.315 709.837,-113.999"/>
<polygon fill="black" stroke="black" points="710.592,-110.578 700.028,-111.384 708.789,-117.342 710.592,-110.578"/>
</g>
<!-- servicemix_cxf_bc -->
<g id="node9" class="node"><title>servicemix_cxf_bc</title>
<polygon fill="gray" stroke="gray" points="790,-114 730,-114 718,-102 718,-90 730,-78 790,-78 802,-90 802,-102 790,-114"/>
<path fill="gray" stroke="gray" d="M730,-114C724,-114 718,-108 718,-102"/>
<path fill="gray" stroke="gray" d="M718,-90C718,-84 724,-78 730,-78"/>
<path fill="gray" stroke="gray" d="M790,-78C796,-78 802,-84 802,-90"/>
<path fill="gray" stroke="gray" d="M802,-102C802,-108 796,-114 790,-114"/>
<polyline fill="none" stroke="black" points="790,-114 730,-114 "/>
<path fill="none" stroke="black" d="M730,-114C724,-114 718,-108 718,-102"/>
<polyline fill="none" stroke="black" points="718,-102 718,-90 "/>
<path fill="none" stroke="black" d="M718,-90C718,-84 724,-78 730,-78"/>
<polyline fill="none" stroke="black" points="730,-78 790,-78 "/>
<path fill="none" stroke="black" d="M790,-78C796,-78 802,-84 802,-90"/>
<polyline fill="none" stroke="black" points="802,-90 802,-102 "/>
<path fill="none" stroke="black" d="M802,-102C802,-108 796,-114 790,-114"/>
<text text-anchor="middle" x="760" y="-94.3" font-family="Helvetica,sans-Serif" font-style="oblique" font-size="8.00">servicemix&#45;cxf&#45;bc</text>
</g>
<!-- jbi&#45;&gt;servicemix_cxf_bc -->
<g id="edge16" class="edge"><title>jbi&#45;&gt;servicemix_cxf_bc</title>
<path fill="none" stroke="black" d="M941.989,-151.172C905.97,-141.694 860.433,-129.237 811.955,-114.205"/>
<polygon fill="black" stroke="black" points="812.811,-110.806 802.223,-111.165 810.724,-117.487 812.811,-110.806"/>
</g>
<!-- servicemix_cxf_se -->
<g id="node10" class="node"><title>servicemix_cxf_se</title>
<polygon fill="gray" stroke="gray" points="890,-114 832,-114 820,-102 820,-90 832,-78 890,-78 902,-90 902,-102 890,-114"/>
<path fill="gray" stroke="gray" d="M832,-114C826,-114 820,-108 820,-102"/>
<path fill="gray" stroke="gray" d="M820,-90C820,-84 826,-78 832,-78"/>
<path fill="gray" stroke="gray" d="M890,-78C896,-78 902,-84 902,-90"/>
<path fill="gray" stroke="gray" d="M902,-102C902,-108 896,-114 890,-114"/>
<polyline fill="none" stroke="black" points="890,-114 832,-114 "/>
<path fill="none" stroke="black" d="M832,-114C826,-114 820,-108 820,-102"/>
<polyline fill="none" stroke="black" points="820,-102 820,-90 "/>
<path fill="none" stroke="black" d="M820,-90C820,-84 826,-78 832,-78"/>
<polyline fill="none" stroke="black" points="832,-78 890,-78 "/>
<path fill="none" stroke="black" d="M890,-78C896,-78 902,-84 902,-90"/>
<polyline fill="none" stroke="black" points="902,-90 902,-102 "/>
<path fill="none" stroke="black" d="M902,-102C902,-108 896,-114 890,-114"/>
<text text-anchor="middle" x="861" y="-94.3" font-family="Helvetica,sans-Serif" font-style="oblique" font-size="8.00">servicemix&#45;cxf&#45;se</text>
</g>
<!-- jbi&#45;&gt;servicemix_cxf_se -->
<g id="edge18" class="edge"><title>jbi&#45;&gt;servicemix_cxf_se</title>
<path fill="none" stroke="black" d="M970.906,-149.831C951.507,-140.33 927.583,-128.612 907.014,-118.537"/>
<polygon fill="black" stroke="black" points="908.348,-115.293 897.828,-114.038 905.269,-121.58 908.348,-115.293"/>
</g>
<!-- servicemix_drools -->
<g id="node11" class="node"><title>servicemix_drools</title>
<polygon fill="gray" stroke="gray" points="990,-114 932,-114 920,-102 920,-90 932,-78 990,-78 1002,-90 1002,-102 990,-114"/>
<path fill="gray" stroke="gray" d="M932,-114C926,-114 920,-108 920,-102"/>
<path fill="gray" stroke="gray" d="M920,-90C920,-84 926,-78 932,-78"/>
<path fill="gray" stroke="gray" d="M990,-78C996,-78 1002,-84 1002,-90"/>
<path fill="gray" stroke="gray" d="M1002,-102C1002,-108 996,-114 990,-114"/>
<polyline fill="none" stroke="black" points="990,-114 932,-114 "/>
<path fill="none" stroke="black" d="M932,-114C926,-114 920,-108 920,-102"/>
<polyline fill="none" stroke="black" points="920,-102 920,-90 "/>
<path fill="none" stroke="black" d="M920,-90C920,-84 926,-78 932,-78"/>
<polyline fill="none" stroke="black" points="932,-78 990,-78 "/>
<path fill="none" stroke="black" d="M990,-78C996,-78 1002,-84 1002,-90"/>
<polyline fill="none" stroke="black" points="1002,-90 1002,-102 "/>
<path fill="none" stroke="black" d="M1002,-102C1002,-108 996,-114 990,-114"/>
<text text-anchor="middle" x="961" y="-94.3" font-family="Helvetica,sans-Serif" font-style="oblique" font-size="8.00">servicemix&#45;drools</text>
</g>
<!-- jbi&#45;&gt;servicemix_drools -->
<g id="edge20" class="edge"><title>jbi&#45;&gt;servicemix_drools</title>
<path fill="none" stroke="black" d="M996.14,-149.831C990.837,-141.708 984.476,-131.964 978.633,-123.012"/>
<polygon fill="black" stroke="black" points="981.417,-120.874 973.02,-114.413 975.555,-124.7 981.417,-120.874"/>
</g>
<!-- servicemix_eip -->
<g id="node12" class="node"><title>servicemix_eip</title>
<polygon fill="gray" stroke="gray" points="1078,-114 1032,-114 1020,-102 1020,-90 1032,-78 1078,-78 1090,-90 1090,-102 1078,-114"/>
<path fill="gray" stroke="gray" d="M1032,-114C1026,-114 1020,-108 1020,-102"/>
<path fill="gray" stroke="gray" d="M1020,-90C1020,-84 1026,-78 1032,-78"/>
<path fill="gray" stroke="gray" d="M1078,-78C1084,-78 1090,-84 1090,-90"/>
<path fill="gray" stroke="gray" d="M1090,-102C1090,-108 1084,-114 1078,-114"/>
<polyline fill="none" stroke="black" points="1078,-114 1032,-114 "/>
<path fill="none" stroke="black" d="M1032,-114C1026,-114 1020,-108 1020,-102"/>
<polyline fill="none" stroke="black" points="1020,-102 1020,-90 "/>
<path fill="none" stroke="black" d="M1020,-90C1020,-84 1026,-78 1032,-78"/>
<polyline fill="none" stroke="black" points="1032,-78 1078,-78 "/>
<path fill="none" stroke="black" d="M1078,-78C1084,-78 1090,-84 1090,-90"/>
<polyline fill="none" stroke="black" points="1090,-90 1090,-102 "/>
<path fill="none" stroke="black" d="M1090,-102C1090,-108 1084,-114 1078,-114"/>
<text text-anchor="middle" x="1055" y="-94.3" font-family="Helvetica,sans-Serif" font-style="oblique" font-size="8.00">servicemix&#45;eip</text>
</g>
<!-- jbi&#45;&gt;servicemix_eip -->
<g id="edge22" class="edge"><title>jbi&#45;&gt;servicemix_eip</title>
<path fill="none" stroke="black" d="M1019.86,-149.831C1025.16,-141.708 1031.52,-131.964 1037.37,-123.012"/>
<polygon fill="black" stroke="black" points="1040.44,-124.7 1042.98,-114.413 1034.58,-120.874 1040.44,-124.7"/>
</g>
<!-- servicemix_file -->
<g id="node13" class="node"><title>servicemix_file</title>
<polygon fill="gray" stroke="gray" points="1166,-114 1120,-114 1108,-102 1108,-90 1120,-78 1166,-78 1178,-90 1178,-102 1166,-114"/>
<path fill="gray" stroke="gray" d="M1120,-114C1114,-114 1108,-108 1108,-102"/>
<path fill="gray" stroke="gray" d="M1108,-90C1108,-84 1114,-78 1120,-78"/>
<path fill="gray" stroke="gray" d="M1166,-78C1172,-78 1178,-84 1178,-90"/>
<path fill="gray" stroke="gray" d="M1178,-102C1178,-108 1172,-114 1166,-114"/>
<polyline fill="none" stroke="black" points="1166,-114 1120,-114 "/>
<path fill="none" stroke="black" d="M1120,-114C1114,-114 1108,-108 1108,-102"/>
<polyline fill="none" stroke="black" points="1108,-102 1108,-90 "/>
<path fill="none" stroke="black" d="M1108,-90C1108,-84 1114,-78 1120,-78"/>
<polyline fill="none" stroke="black" points="1120,-78 1166,-78 "/>
<path fill="none" stroke="black" d="M1166,-78C1172,-78 1178,-84 1178,-90"/>
<polyline fill="none" stroke="black" points="1178,-90 1178,-102 "/>
<path fill="none" stroke="black" d="M1178,-102C1178,-108 1172,-114 1166,-114"/>
<text text-anchor="middle" x="1143" y="-94.3" font-family="Helvetica,sans-Serif" font-style="oblique" font-size="8.00">servicemix&#45;file</text>
</g>
<!-- jbi&#45;&gt;servicemix_file -->
<g id="edge24" class="edge"><title>jbi&#45;&gt;servicemix_file</title>
<path fill="none" stroke="black" d="M1042.07,-149.831C1059.65,-140.452 1081.29,-128.911 1100.02,-118.924"/>
<polygon fill="black" stroke="black" points="1101.77,-121.957 1108.94,-114.163 1098.47,-115.781 1101.77,-121.957"/>
</g>
<!-- servicemix_ftp -->
<g id="node14" class="node"><title>servicemix_ftp</title>
<polygon fill="gray" stroke="gray" points="1252,-114 1208,-114 1196,-102 1196,-90 1208,-78 1252,-78 1264,-90 1264,-102 1252,-114"/>
<path fill="gray" stroke="gray" d="M1208,-114C1202,-114 1196,-108 1196,-102"/>
<path fill="gray" stroke="gray" d="M1196,-90C1196,-84 1202,-78 1208,-78"/>
<path fill="gray" stroke="gray" d="M1252,-78C1258,-78 1264,-84 1264,-90"/>
<path fill="gray" stroke="gray" d="M1264,-102C1264,-108 1258,-114 1252,-114"/>
<polyline fill="none" stroke="black" points="1252,-114 1208,-114 "/>
<path fill="none" stroke="black" d="M1208,-114C1202,-114 1196,-108 1196,-102"/>
<polyline fill="none" stroke="black" points="1196,-102 1196,-90 "/>
<path fill="none" stroke="black" d="M1196,-90C1196,-84 1202,-78 1208,-78"/>
<polyline fill="none" stroke="black" points="1208,-78 1252,-78 "/>
<path fill="none" stroke="black" d="M1252,-78C1258,-78 1264,-84 1264,-90"/>
<polyline fill="none" stroke="black" points="1264,-90 1264,-102 "/>
<path fill="none" stroke="black" d="M1264,-102C1264,-108 1258,-114 1252,-114"/>
<text text-anchor="middle" x="1230" y="-94.3" font-family="Helvetica,sans-Serif" font-style="oblique" font-size="8.00">servicemix&#45;ftp</text>
</g>
<!-- jbi&#45;&gt;servicemix_ftp -->
<g id="edge26" class="edge"><title>jbi&#45;&gt;servicemix_ftp</title>
<path fill="none" stroke="black" d="M1073.57,-149.982C1105.28,-140.858 1143.99,-129.118 1186.22,-114.125"/>
<polygon fill="black" stroke="black" points="1187.63,-117.338 1195.86,-110.667 1185.26,-110.749 1187.63,-117.338"/>
</g>
<!-- servicemix_osworkflow -->
<g id="node15" class="node"><title>servicemix_osworkflow</title>
<polygon fill="gray" stroke="gray" points="1370,-114 1294,-114 1282,-102 1282,-90 1294,-78 1370,-78 1382,-90 1382,-102 1370,-114"/>
<path fill="gray" stroke="gray" d="M1294,-114C1288,-114 1282,-108 1282,-102"/>
<path fill="gray" stroke="gray" d="M1282,-90C1282,-84 1288,-78 1294,-78"/>
<path fill="gray" stroke="gray" d="M1370,-78C1376,-78 1382,-84 1382,-90"/>
<path fill="gray" stroke="gray" d="M1382,-102C1382,-108 1376,-114 1370,-114"/>
<polyline fill="none" stroke="black" points="1370,-114 1294,-114 "/>
<path fill="none" stroke="black" d="M1294,-114C1288,-114 1282,-108 1282,-102"/>
<polyline fill="none" stroke="black" points="1282,-102 1282,-90 "/>
<path fill="none" stroke="black" d="M1282,-90C1282,-84 1288,-78 1294,-78"/>
<polyline fill="none" stroke="black" points="1294,-78 1370,-78 "/>
<path fill="none" stroke="black" d="M1370,-78C1376,-78 1382,-84 1382,-90"/>
<polyline fill="none" stroke="black" points="1382,-90 1382,-102 "/>
<path fill="none" stroke="black" d="M1382,-102C1382,-108 1376,-114 1370,-114"/>
<text text-anchor="middle" x="1332" y="-94.3" font-family="Helvetica,sans-Serif" font-style="oblique" font-size="8.00">servicemix&#45;osworkflow</text>
</g>
<!-- jbi&#45;&gt;servicemix_osworkflow -->
<g id="edge28" class="edge"><title>jbi&#45;&gt;servicemix_osworkflow</title>
<path fill="none" stroke="black" d="M1074.01,-156.354C1125.55,-146.848 1199.11,-132.376 1272.06,-114.127"/>
<polygon fill="black" stroke="black" points="1273.04,-117.488 1281.88,-111.646 1271.33,-110.702 1273.04,-117.488"/>
</g>
<!-- servicemix_quartz -->
<g id="node16" class="node"><title>servicemix_quartz</title>
<polygon fill="gray" stroke="gray" points="1470,-114 1412,-114 1400,-102 1400,-90 1412,-78 1470,-78 1482,-90 1482,-102 1470,-114"/>
<path fill="gray" stroke="gray" d="M1412,-114C1406,-114 1400,-108 1400,-102"/>
<path fill="gray" stroke="gray" d="M1400,-90C1400,-84 1406,-78 1412,-78"/>
<path fill="gray" stroke="gray" d="M1470,-78C1476,-78 1482,-84 1482,-90"/>
<path fill="gray" stroke="gray" d="M1482,-102C1482,-108 1476,-114 1470,-114"/>
<polyline fill="none" stroke="black" points="1470,-114 1412,-114 "/>
<path fill="none" stroke="black" d="M1412,-114C1406,-114 1400,-108 1400,-102"/>
<polyline fill="none" stroke="black" points="1400,-102 1400,-90 "/>
<path fill="none" stroke="black" d="M1400,-90C1400,-84 1406,-78 1412,-78"/>
<polyline fill="none" stroke="black" points="1412,-78 1470,-78 "/>
<path fill="none" stroke="black" d="M1470,-78C1476,-78 1482,-84 1482,-90"/>
<polyline fill="none" stroke="black" points="1482,-90 1482,-102 "/>
<path fill="none" stroke="black" d="M1482,-102C1482,-108 1476,-114 1470,-114"/>
<text text-anchor="middle" x="1441" y="-94.3" font-family="Helvetica,sans-Serif" font-style="oblique" font-size="8.00">servicemix&#45;quartz</text>
</g>
<!-- jbi&#45;&gt;servicemix_quartz -->
<g id="edge30" class="edge"><title>jbi&#45;&gt;servicemix_quartz</title>
<path fill="none" stroke="black" d="M1074.18,-162.828C1149.06,-156.05 1274.56,-141.886 1390.02,-113.982"/>
<polygon fill="black" stroke="black" points="1390.85,-117.381 1399.73,-111.596 1389.18,-110.583 1390.85,-117.381"/>
</g>
<!-- servicemix_saxon -->
<g id="node17" class="node"><title>servicemix_saxon</title>
<polygon fill="gray" stroke="gray" points="1570,-114 1512,-114 1500,-102 1500,-90 1512,-78 1570,-78 1582,-90 1582,-102 1570,-114"/>
<path fill="gray" stroke="gray" d="M1512,-114C1506,-114 1500,-108 1500,-102"/>
<path fill="gray" stroke="gray" d="M1500,-90C1500,-84 1506,-78 1512,-78"/>
<path fill="gray" stroke="gray" d="M1570,-78C1576,-78 1582,-84 1582,-90"/>
<path fill="gray" stroke="gray" d="M1582,-102C1582,-108 1576,-114 1570,-114"/>
<polyline fill="none" stroke="black" points="1570,-114 1512,-114 "/>
<path fill="none" stroke="black" d="M1512,-114C1506,-114 1500,-108 1500,-102"/>
<polyline fill="none" stroke="black" points="1500,-102 1500,-90 "/>
<path fill="none" stroke="black" d="M1500,-90C1500,-84 1506,-78 1512,-78"/>
<polyline fill="none" stroke="black" points="1512,-78 1570,-78 "/>
<path fill="none" stroke="black" d="M1570,-78C1576,-78 1582,-84 1582,-90"/>
<polyline fill="none" stroke="black" points="1582,-90 1582,-102 "/>
<path fill="none" stroke="black" d="M1582,-102C1582,-108 1576,-114 1570,-114"/>
<text text-anchor="middle" x="1541" y="-94.3" font-family="Helvetica,sans-Serif" font-style="oblique" font-size="8.00">servicemix&#45;saxon</text>
</g>
<!-- jbi&#45;&gt;servicemix_saxon -->
<g id="edge32" class="edge"><title>jbi&#45;&gt;servicemix_saxon</title>
<path fill="none" stroke="black" d="M1074.06,-165.508C1165.83,-160.969 1336.95,-148.607 1489.72,-114.003"/>
<polygon fill="black" stroke="black" points="1490.79,-117.347 1499.75,-111.691 1489.22,-110.525 1490.79,-117.347"/>
</g>
<!-- servicemix_script -->
<g id="node18" class="node"><title>servicemix_script</title>
<polygon fill="gray" stroke="gray" points="1668,-114 1612,-114 1600,-102 1600,-90 1612,-78 1668,-78 1680,-90 1680,-102 1668,-114"/>
<path fill="gray" stroke="gray" d="M1612,-114C1606,-114 1600,-108 1600,-102"/>
<path fill="gray" stroke="gray" d="M1600,-90C1600,-84 1606,-78 1612,-78"/>
<path fill="gray" stroke="gray" d="M1668,-78C1674,-78 1680,-84 1680,-90"/>
<path fill="gray" stroke="gray" d="M1680,-102C1680,-108 1674,-114 1668,-114"/>
<polyline fill="none" stroke="black" points="1668,-114 1612,-114 "/>
<path fill="none" stroke="black" d="M1612,-114C1606,-114 1600,-108 1600,-102"/>
<polyline fill="none" stroke="black" points="1600,-102 1600,-90 "/>
<path fill="none" stroke="black" d="M1600,-90C1600,-84 1606,-78 1612,-78"/>
<polyline fill="none" stroke="black" points="1612,-78 1668,-78 "/>
<path fill="none" stroke="black" d="M1668,-78C1674,-78 1680,-84 1680,-90"/>
<polyline fill="none" stroke="black" points="1680,-90 1680,-102 "/>
<path fill="none" stroke="black" d="M1680,-102C1680,-108 1674,-114 1668,-114"/>
<text text-anchor="middle" x="1640" y="-94.3" font-family="Helvetica,sans-Serif" font-style="oblique" font-size="8.00">servicemix&#45;script</text>
</g>
<!-- jbi&#45;&gt;servicemix_script -->
<g id="edge34" class="edge"><title>jbi&#45;&gt;servicemix_script</title>
<path fill="none" stroke="black" d="M1074.05,-164.047C1201.22,-156.091 1476.73,-137.094 1589.77,-113.867"/>
<polygon fill="black" stroke="black" points="1590.84,-117.217 1599.87,-111.679 1589.36,-110.375 1590.84,-117.217"/>
</g>
<!-- servicemix_truezip -->
<g id="node19" class="node"><title>servicemix_truezip</title>
<polygon fill="gray" stroke="gray" points="1770,-114 1710,-114 1698,-102 1698,-90 1710,-78 1770,-78 1782,-90 1782,-102 1770,-114"/>
<path fill="gray" stroke="gray" d="M1710,-114C1704,-114 1698,-108 1698,-102"/>
<path fill="gray" stroke="gray" d="M1698,-90C1698,-84 1704,-78 1710,-78"/>
<path fill="gray" stroke="gray" d="M1770,-78C1776,-78 1782,-84 1782,-90"/>
<path fill="gray" stroke="gray" d="M1782,-102C1782,-108 1776,-114 1770,-114"/>
<polyline fill="none" stroke="black" points="1770,-114 1710,-114 "/>
<path fill="none" stroke="black" d="M1710,-114C1704,-114 1698,-108 1698,-102"/>
<polyline fill="none" stroke="black" points="1698,-102 1698,-90 "/>
<path fill="none" stroke="black" d="M1698,-90C1698,-84 1704,-78 1710,-78"/>
<polyline fill="none" stroke="black" points="1710,-78 1770,-78 "/>
<path fill="none" stroke="black" d="M1770,-78C1776,-78 1782,-84 1782,-90"/>
<polyline fill="none" stroke="black" points="1782,-90 1782,-102 "/>
<path fill="none" stroke="black" d="M1782,-102C1782,-108 1776,-114 1770,-114"/>
<text text-anchor="middle" x="1740" y="-94.3" font-family="Helvetica,sans-Serif" font-style="oblique" font-size="8.00">servicemix&#45;truezip</text>
</g>
<!-- jbi&#45;&gt;servicemix_truezip -->
<g id="edge36" class="edge"><title>jbi&#45;&gt;servicemix_truezip</title>
<path fill="none" stroke="black" d="M1074.02,-164.955C1217.54,-157.989 1555.05,-139.642 1687.98,-113.826"/>
<polygon fill="black" stroke="black" points="1688.84,-117.221 1697.94,-111.793 1687.44,-110.363 1688.84,-117.221"/>
</g>
<!-- servicemix_wsn2005 -->
<g id="node20" class="node"><title>servicemix_wsn2005</title>
<polygon fill="gray" stroke="gray" points="1880,-114 1812,-114 1800,-102 1800,-90 1812,-78 1880,-78 1892,-90 1892,-102 1880,-114"/>
<path fill="gray" stroke="gray" d="M1812,-114C1806,-114 1800,-108 1800,-102"/>
<path fill="gray" stroke="gray" d="M1800,-90C1800,-84 1806,-78 1812,-78"/>
<path fill="gray" stroke="gray" d="M1880,-78C1886,-78 1892,-84 1892,-90"/>
<path fill="gray" stroke="gray" d="M1892,-102C1892,-108 1886,-114 1880,-114"/>
<polyline fill="none" stroke="black" points="1880,-114 1812,-114 "/>
<path fill="none" stroke="black" d="M1812,-114C1806,-114 1800,-108 1800,-102"/>
<polyline fill="none" stroke="black" points="1800,-102 1800,-90 "/>
<path fill="none" stroke="black" d="M1800,-90C1800,-84 1806,-78 1812,-78"/>
<polyline fill="none" stroke="black" points="1812,-78 1880,-78 "/>
<path fill="none" stroke="black" d="M1880,-78C1886,-78 1892,-84 1892,-90"/>
<polyline fill="none" stroke="black" points="1892,-90 1892,-102 "/>
<path fill="none" stroke="black" d="M1892,-102C1892,-108 1886,-114 1880,-114"/>
<text text-anchor="middle" x="1846" y="-94.3" font-family="Helvetica,sans-Serif" font-style="oblique" font-size="8.00">servicemix&#45;wsn2005</text>
</g>
<!-- jbi&#45;&gt;servicemix_wsn2005 -->
<g id="edge38" class="edge"><title>jbi&#45;&gt;servicemix_wsn2005</title>
<path fill="none" stroke="black" d="M1074.01,-165.549C1233.18,-159.308 1635.71,-141.474 1789.5,-113.956"/>
<polygon fill="black" stroke="black" points="1790.52,-117.327 1799.7,-112.044 1789.23,-110.446 1790.52,-117.327"/>
</g>
<!-- servicemix_xmpp -->
<g id="node21" class="node"><title>servicemix_xmpp</title>
<polygon fill="gray" stroke="gray" points="1978,-114 1922,-114 1910,-102 1910,-90 1922,-78 1978,-78 1990,-90 1990,-102 1978,-114"/>
<path fill="gray" stroke="gray" d="M1922,-114C1916,-114 1910,-108 1910,-102"/>
<path fill="gray" stroke="gray" d="M1910,-90C1910,-84 1916,-78 1922,-78"/>
<path fill="gray" stroke="gray" d="M1978,-78C1984,-78 1990,-84 1990,-90"/>
<path fill="gray" stroke="gray" d="M1990,-102C1990,-108 1984,-114 1978,-114"/>
<polyline fill="none" stroke="black" points="1978,-114 1922,-114 "/>
<path fill="none" stroke="black" d="M1922,-114C1916,-114 1910,-108 1910,-102"/>
<polyline fill="none" stroke="black" points="1910,-102 1910,-90 "/>
<path fill="none" stroke="black" d="M1910,-90C1910,-84 1916,-78 1922,-78"/>
<polyline fill="none" stroke="black" points="1922,-78 1978,-78 "/>
<path fill="none" stroke="black" d="M1978,-78C1984,-78 1990,-84 1990,-90"/>
<polyline fill="none" stroke="black" points="1990,-90 1990,-102 "/>
<path fill="none" stroke="black" d="M1990,-102C1990,-108 1984,-114 1978,-114"/>
<text text-anchor="middle" x="1950" y="-94.3" font-family="Helvetica,sans-Serif" font-style="oblique" font-size="8.00">servicemix&#45;xmpp</text>
</g>
<!-- jbi&#45;&gt;servicemix_xmpp -->
<g id="edge40" class="edge"><title>jbi&#45;&gt;servicemix_xmpp</title>
<path fill="none" stroke="black" d="M1074.06,-166.497C1249.38,-162.119 1724.43,-147.622 1900.01,-113.779"/>
<polygon fill="black" stroke="black" points="1900.79,-117.194 1909.9,-111.786 1899.4,-110.332 1900.79,-117.194"/>
</g>
<!-- external__http___servicemix_apache_org_samples_wsdl_first_PersonService_soap -->
<g id="node45" class="node"><title>external__http___servicemix_apache_org_samples_wsdl_first_PersonService_soap</title>
<polygon fill="#66ccff" stroke="#66ccff" points="229,-41.5 63,-41.5 51,-29.5 51,-12.5 63,-0.5 229,-0.5 241,-12.5 241,-29.5 229,-41.5"/>
<path fill="#66ccff" stroke="#66ccff" d="M63,-41.5C57,-41.5 51,-35.5 51,-29.5"/>
<path fill="#66ccff" stroke="#66ccff" d="M51,-12.5C51,-6.5 57,-0.5 63,-0.5"/>
<path fill="#66ccff" stroke="#66ccff" d="M229,-0.5C235,-0.5 241,-6.5 241,-12.5"/>
<path fill="#66ccff" stroke="#66ccff" d="M241,-29.5C241,-35.5 235,-41.5 229,-41.5"/>
<polyline fill="none" stroke="black" points="229,-41.5 63,-41.5 "/>
<path fill="none" stroke="black" d="M63,-41.5C57,-41.5 51,-35.5 51,-29.5"/>
<polyline fill="none" stroke="black" points="51,-29.5 51,-12.5 "/>
<path fill="none" stroke="black" d="M51,-12.5C51,-6.5 57,-0.5 63,-0.5"/>
<polyline fill="none" stroke="black" points="63,-0.5 229,-0.5 "/>
<path fill="none" stroke="black" d="M229,-0.5C235,-0.5 241,-6.5 241,-12.5"/>
<polyline fill="none" stroke="black" points="241,-12.5 241,-29.5 "/>
<path fill="none" stroke="black" d="M241,-29.5C241,-35.5 235,-41.5 229,-41.5"/>
<text text-anchor="middle" x="146" y="-30.3" font-family="Helvetica,sans-Serif" font-style="oblique" font-size="8.00">http://servicemix.apache.org/samples/wsdl&#45;first</text>
<text text-anchor="middle" x="146" y="-19.3" font-family="Helvetica,sans-Serif" font-style="oblique" font-size="8.00">PersonService</text>
<text text-anchor="middle" x="146" y="-8.3" font-family="Helvetica,sans-Serif" font-style="oblique" font-size="8.00">soap</text>
</g>
<!-- servicemix_http&#45;&gt;external__http___servicemix_apache_org_samples_wsdl_first_PersonService_soap -->
<g id="edge48" class="edge"><title>servicemix_http&#45;&gt;external__http___servicemix_apache_org_samples_wsdl_first_PersonService_soap</title>
<path fill="none" stroke="black" d="M155.095,-77.8446C153.839,-69.9924 152.333,-60.5819 150.912,-51.6983"/>
<polygon fill="black" stroke="black" points="154.338,-50.9581 149.302,-41.6367 147.426,-52.0641 154.338,-50.9581"/>
</g>
<!-- internal__http___servicemix_apache_org_samples_wsdl_first_PersonService_PersonServiceJBIPort -->
<g id="node44" class="node"><title>internal__http___servicemix_apache_org_samples_wsdl_first_PersonService_PersonServiceJBIPort</title>
<polygon fill="#6699ff" stroke="#6699ff" points="437,-41.5 271,-41.5 259,-29.5 259,-12.5 271,-0.5 437,-0.5 449,-12.5 449,-29.5 437,-41.5"/>
<path fill="#6699ff" stroke="#6699ff" d="M271,-41.5C265,-41.5 259,-35.5 259,-29.5"/>
<path fill="#6699ff" stroke="#6699ff" d="M259,-12.5C259,-6.5 265,-0.5 271,-0.5"/>
<path fill="#6699ff" stroke="#6699ff" d="M437,-0.5C443,-0.5 449,-6.5 449,-12.5"/>
<path fill="#6699ff" stroke="#6699ff" d="M449,-29.5C449,-35.5 443,-41.5 437,-41.5"/>
<polyline fill="none" stroke="black" points="437,-41.5 271,-41.5 "/>
<path fill="none" stroke="black" d="M271,-41.5C265,-41.5 259,-35.5 259,-29.5"/>
<polyline fill="none" stroke="black" points="259,-29.5 259,-12.5 "/>
<path fill="none" stroke="black" d="M259,-12.5C259,-6.5 265,-0.5 271,-0.5"/>
<polyline fill="none" stroke="black" points="271,-0.5 437,-0.5 "/>
<path fill="none" stroke="black" d="M437,-0.5C443,-0.5 449,-6.5 449,-12.5"/>
<polyline fill="none" stroke="black" points="449,-12.5 449,-29.5 "/>
<path fill="none" stroke="black" d="M449,-29.5C449,-35.5 443,-41.5 437,-41.5"/>
<text text-anchor="middle" x="354" y="-30.3" font-family="Helvetica,sans-Serif" font-style="oblique" font-size="8.00">http://servicemix.apache.org/samples/wsdl&#45;first</text>
<text text-anchor="middle" x="354" y="-19.3" font-family="Helvetica,sans-Serif" font-style="oblique" font-size="8.00">PersonService</text>
<text text-anchor="middle" x="354" y="-8.3" font-family="Helvetica,sans-Serif" font-style="oblique" font-size="8.00">PersonServiceJBIPort</text>
</g>
<!-- servicemix_jsr181&#45;&gt;internal__http___servicemix_apache_org_samples_wsdl_first_PersonService_PersonServiceJBIPort -->
<g id="edge46" class="edge"><title>servicemix_jsr181&#45;&gt;internal__http___servicemix_apache_org_samples_wsdl_first_PersonService_PersonServiceJBIPort</title>
<path fill="none" stroke="black" d="M345.663,-77.8446C346.814,-69.9924 348.195,-60.5819 349.498,-51.6983"/>
<polygon fill="black" stroke="black" points="352.985,-52.0388 350.973,-41.6367 346.059,-51.0229 352.985,-52.0388"/>
</g>
<!-- external__http___logisticx_demo_fuse_iona_com_orderService__OrderServiceService_OrderServicePort -->
<g id="node42" class="node"><title>external__http___logisticx_demo_fuse_iona_com_orderService__OrderServiceService_OrderServicePort</title>
<polygon fill="#66ccff" stroke="#66ccff" points="789,-41.5 617,-41.5 605,-29.5 605,-12.5 617,-0.5 789,-0.5 801,-12.5 801,-29.5 789,-41.5"/>
<path fill="#66ccff" stroke="#66ccff" d="M617,-41.5C611,-41.5 605,-35.5 605,-29.5"/>
<path fill="#66ccff" stroke="#66ccff" d="M605,-12.5C605,-6.5 611,-0.5 617,-0.5"/>
<path fill="#66ccff" stroke="#66ccff" d="M789,-0.5C795,-0.5 801,-6.5 801,-12.5"/>
<path fill="#66ccff" stroke="#66ccff" d="M801,-29.5C801,-35.5 795,-41.5 789,-41.5"/>
<polyline fill="none" stroke="black" points="789,-41.5 617,-41.5 "/>
<path fill="none" stroke="black" d="M617,-41.5C611,-41.5 605,-35.5 605,-29.5"/>
<polyline fill="none" stroke="black" points="605,-29.5 605,-12.5 "/>
<path fill="none" stroke="black" d="M605,-12.5C605,-6.5 611,-0.5 617,-0.5"/>
<polyline fill="none" stroke="black" points="617,-0.5 789,-0.5 "/>
<path fill="none" stroke="black" d="M789,-0.5C795,-0.5 801,-6.5 801,-12.5"/>
<polyline fill="none" stroke="black" points="801,-12.5 801,-29.5 "/>
<path fill="none" stroke="black" d="M801,-29.5C801,-35.5 795,-41.5 789,-41.5"/>
<text text-anchor="middle" x="703" y="-30.3" font-family="Helvetica,sans-Serif" font-style="oblique" font-size="8.00">http://logisticx.demo.fuse.iona.com/orderService/</text>
<text text-anchor="middle" x="703" y="-19.3" font-family="Helvetica,sans-Serif" font-style="oblique" font-size="8.00">OrderServiceService</text>
<text text-anchor="middle" x="703" y="-8.3" font-family="Helvetica,sans-Serif" font-style="oblique" font-size="8.00">OrderServicePort</text>
</g>
<!-- servicemix_cxf_bc&#45;&gt;external__http___logisticx_demo_fuse_iona_com_orderService__OrderServiceService_OrderServicePort -->
<g id="edge42" class="edge"><title>servicemix_cxf_bc&#45;&gt;external__http___logisticx_demo_fuse_iona_com_orderService__OrderServiceService_OrderServicePort</title>
<path fill="none" stroke="black" d="M746.202,-77.8446C739.78,-69.3949 731.987,-59.1408 724.797,-49.6806"/>
<polygon fill="black" stroke="black" points="727.521,-47.4806 718.684,-41.6367 721.948,-51.7162 727.521,-47.4806"/>
</g>
<!-- internal__http___logisticx_demo_fuse_iona_com_orderService__OrderServiceService_OrderServicePort -->
<g id="node43" class="node"><title>internal__http___logisticx_demo_fuse_iona_com_orderService__OrderServiceService_OrderServicePort</title>
<polygon fill="#6699ff" stroke="#6699ff" points="1003,-41.5 831,-41.5 819,-29.5 819,-12.5 831,-0.5 1003,-0.5 1015,-12.5 1015,-29.5 1003,-41.5"/>
<path fill="#6699ff" stroke="#6699ff" d="M831,-41.5C825,-41.5 819,-35.5 819,-29.5"/>
<path fill="#6699ff" stroke="#6699ff" d="M819,-12.5C819,-6.5 825,-0.5 831,-0.5"/>
<path fill="#6699ff" stroke="#6699ff" d="M1003,-0.5C1009,-0.5 1015,-6.5 1015,-12.5"/>
<path fill="#6699ff" stroke="#6699ff" d="M1015,-29.5C1015,-35.5 1009,-41.5 1003,-41.5"/>
<polyline fill="none" stroke="black" points="1003,-41.5 831,-41.5 "/>
<path fill="none" stroke="black" d="M831,-41.5C825,-41.5 819,-35.5 819,-29.5"/>
<polyline fill="none" stroke="black" points="819,-29.5 819,-12.5 "/>
<path fill="none" stroke="black" d="M819,-12.5C819,-6.5 825,-0.5 831,-0.5"/>
<polyline fill="none" stroke="black" points="831,-0.5 1003,-0.5 "/>
<path fill="none" stroke="black" d="M1003,-0.5C1009,-0.5 1015,-6.5 1015,-12.5"/>
<polyline fill="none" stroke="black" points="1015,-12.5 1015,-29.5 "/>
<path fill="none" stroke="black" d="M1015,-29.5C1015,-35.5 1009,-41.5 1003,-41.5"/>
<text text-anchor="middle" x="917" y="-30.3" font-family="Helvetica,sans-Serif" font-style="oblique" font-size="8.00">http://logisticx.demo.fuse.iona.com/orderService/</text>
<text text-anchor="middle" x="917" y="-19.3" font-family="Helvetica,sans-Serif" font-style="oblique" font-size="8.00">OrderServiceService</text>
<text text-anchor="middle" x="917" y="-8.3" font-family="Helvetica,sans-Serif" font-style="oblique" font-size="8.00">OrderServicePort</text>
</g>
<!-- servicemix_cxf_se&#45;&gt;internal__http___logisticx_demo_fuse_iona_com_orderService__OrderServiceService_OrderServicePort -->
<g id="edge44" class="edge"><title>servicemix_cxf_se&#45;&gt;internal__http___logisticx_demo_fuse_iona_com_orderService__OrderServiceService_OrderServicePort</title>
<path fill="none" stroke="black" d="M874.556,-77.8446C880.865,-69.3949 888.522,-59.1408 895.585,-49.6806"/>
<polygon fill="black" stroke="black" points="898.413,-51.7436 901.591,-41.6367 892.804,-47.5555 898.413,-51.7436"/>
</g>
</g>
</svg>
